<svg width="120" height="36" viewBox="0 0 120 36" xmlns="http://www.w3.org/2000/svg" role="img" aria-label="Google Pay logo">
  <title>Google Pay</title>
  <g fill="none" fill-rule="evenodd">
    <rect width="120" height="36" rx="6" fill="none" />
    <path d="M16.5 9.5c3.8 0 6.5 2.6 6.5 6.4 0 4-2.8 6.6-6.6 6.6-3.9 0-6.9-3-6.9-6.9s3-6.1 7-6.1z" fill="#E5E7EB" />
    <path d="M19.8 18.1c-.9.7-2 1.1-3.3 1.1-2.6 0-4.8-2.1-4.8-4.8 0-2.5 1.9-4.6 4.4-4.8v2.7h-1.8v2.1h1.8v1.9h2.2V9.5h2.4c.6.9.9 2 .9 3.1 0 1.9-.7 3.3-1.8 4.2z" fill="#9CA3AF" />
    <text x="32" y="22" font-family="'Inter', 'Segoe UI', Arial, sans-serif" font-size="16" font-weight="600" letter-spacing=".01em" fill="#9CA3AF">Google Pay</text>
  </g>
</svg>
